# xmcd
#
# Track frame offsets: 
#        150
#        13793
#        25120
#        37248
#        52217
#        62890
#        75284
#        87336
#        99286
#        111273
#        122269
#        133689
#        142549
#        155340
#        172976
#        184791
#        196973
#        210429
#        223676
#        236193
#        249346
#        263980
#
# Disc length: 3666 seconds
#
# Revision: 3
# Processed by: cddbd v1.5.2PL0 Copyright (c) Steve Scherf et al.
# Submitted via: ExactAudioCopyFreeDBPlugin 1.0
#
DISCID=2a0e5016
DTITLE=King Curtis - Plays the Great Memphis Hits and King Size Soul
DYEAR=1998
DGENRE=Soul
TTITLE0=Knock on Wood
TTITLE1=Good to Me
TTITLE2=Hold On, I'm Comin'
TTITLE3=When Something is Wrong with My Baby
TTITLE4=Green Onions
TTITLE5=You Don't Miss Your Water
TTITLE6=Fa-Fa-Fa-Fa-Fa (Sad Song)
TTITLE7=In the Midnight Hour
TTITLE8=The Dog
TTITLE9=I've Been Loving You Too Long
TTITLE10=Last Night
TTITLE11=Jump Back
TTITLE12=Ode to Billy Joe
TTITLE13=A Whiter Shade of Pale
TTITLE14=For What It's Worth
TTITLE15=To Sir, with Love
TTITLE16=Memphis Soul Stew
TTITLE17=When a Man Loves a Woman
TTITLE18=I Never Loved a Man (The Way I Love You)
TTITLE19=Live for Life
TTITLE20=C.C. Rider
TTITLE21=I Was Made to Love Her
EXTD=YEAR: 1998
EXTT0=
EXTT1=
EXTT2=
EXTT3=
EXTT4=
EXTT5=
EXTT6=
EXTT7=
EXTT8=
EXTT9=
EXTT10=
EXTT11=
EXTT12=
EXTT13=
EXTT14=
EXTT15=
EXTT16=
EXTT17=
EXTT18=
EXTT19=
EXTT20=
EXTT21=
PLAYORDER=
